<svg width="40" height="40" viewBox="0 0 40 40" fill="none" xmlns="http://www.w3.org/2000/svg">
<path d="M20 28.3334C20.884 28.3334 21.7319 27.9822 22.357 27.357C22.9821 26.7319 23.3333 25.8841 23.3333 25C23.3333 24.116 22.9821 23.2681 22.357 22.643C21.7319 22.0179 20.884 21.6667 20 21.6667C19.1159 21.6667 18.2681 22.0179 17.6429 22.643C17.0178 23.2681 16.6666 24.116 16.6666 25C16.6666 25.8841 17.0178 26.7319 17.6429 27.357C18.2681 27.9822 19.1159 28.3334 20 28.3334ZM30 13.3334C30.884 13.3334 31.7319 13.6845 32.357 14.3097C32.9821 14.9348 33.3333 15.7826 33.3333 16.6667V33.3334C33.3333 34.2174 32.9821 35.0653 32.357 35.6904C31.7319 36.3155 30.884 36.6667 30 36.6667H9.99996C9.1159 36.6667 8.26806 36.3155 7.64294 35.6904C7.01782 35.0653 6.66663 34.2174 6.66663 33.3334V16.6667C6.66663 15.7826 7.01782 14.9348 7.64294 14.3097C8.26806 13.6845 9.1159 13.3334 9.99996 13.3334H11.6666V10C11.6666 7.78988 12.5446 5.67027 14.1074 4.10746C15.6702 2.54466 17.7898 1.66669 20 1.66669C21.0943 1.66669 22.1779 1.88224 23.189 2.30102C24.2 2.71981 25.1187 3.33364 25.8925 4.10746C26.6663 4.88129 27.2802 5.79994 27.699 6.81099C28.1177 7.82204 28.3333 8.90567 28.3333 10V13.3334H30ZM20 5.00002C18.6739 5.00002 17.4021 5.5268 16.4644 6.46449C15.5267 7.40217 15 8.67394 15 10V13.3334H25V10C25 8.67394 24.4732 7.40217 23.5355 6.46449C22.5978 5.5268 21.326 5.00002 20 5.00002Z" fill="white"/>
</svg>
